<?xml version="1.0" encoding="UTF-8"?>
<!-- Generator: Adobe Illustrator 24.1.2, SVG Export Plug-In . SVG Version: 6.00 Build 0)  -->
<svg enable-background="new 0 0 595.28 595.28" version="1.1" viewBox="0 0 595 595" xml:space="preserve" xmlns="http://www.w3.org/2000/svg">
<style type="text/css">
	.st0{fill:url(#SVGID_1_);}
	.st1{fill:url(#SVGID_2_);}
</style>

	
		<linearGradient id="SVGID_1_" x1="297" x2="307" y1="260" y2="-37" gradientTransform="translate(0 247)" gradientUnits="userSpaceOnUse">
		<stop stop-color="#fff" offset="0"/>
		<stop stop-color="#020202" offset="1"/>
	</linearGradient>
	<path class="st0" d="m346 417c-16 0.14-24-20-12-30 1.3-1.2 2.3-2 2.7-2.2 2.7-0.92 78-1.8 82 0 2.3 1.2 39 41 66 69 10 11 2.5 30-13 30h-285c-16 0-24-19-12-30l214-213c11-11 3.3-30-12-30h-178c-4.8 0-9.4-1.9-13-5.4l-60-63c-11-11-2.8-30 13-30h285c16 0 24 20 12 31-1.4 1.3-2.3 1.8-2.3 1.4 0-2.1-150-2.1-224-1.9-15 0.03-23 18-13 30l0.63 0.69c3.3 3.6 7.9 5.6 13 5.7l243 1.5c16 0.1 23 19 12 30-70 71-241 244-240 242 0.66-2 112-1.1 175-0.48 16 0.16 24-19 13-30-3.4-3.4-8-5.4-13-5.3l-52 0.48z"/>
	
		<linearGradient id="SVGID_2_" x1="206" x2="216" y1="258" y2="-39" gradientTransform="translate(0 247)" gradientUnits="userSpaceOnUse">
		<stop stop-color="#fff" offset="0"/>
		<stop stop-color="#020202" offset="1"/>
	</linearGradient>
	<path class="st1" d="m290 246c16 0 23 19 12 30l-135 135c-3.2 3.1-7.4 5-12 5.1-13 0.43-41 1.2-40-0.23 1.6-1.6 135-137 163-164 3.1-3.2 7.4-4.9 12-4.9z"/>

</svg>
